<svg width="32" height="32" viewBox="0 0 32 32" fill="none" xmlns="http://www.w3.org/2000/svg">
<g clip-path="url(#clip0_1267_862)">
<path d="M16 24C20 19.8 24 16.0391 24 11.4C24 6.76081 20.4183 3 16 3C11.5817 3 8 6.76081 8 11.4C8 16.0391 12 19.8 16 24Z" stroke="black" stroke-width="1.5" stroke-linecap="round" stroke-linejoin="round"/>
<path d="M16 24C20 19.8 24 16.0391 24 11.4C24 6.76081 20.4183 3 16 3C11.5817 3 8 6.76081 8 11.4C8 16.0391 12 19.8 16 24Z" fill="white" stroke="#2196F3" stroke-width="1.5" stroke-linecap="round" stroke-linejoin="round"/>
<path d="M16 14C17.6569 14 19 12.6569 19 11C19 9.34315 17.6569 8 16 8C14.3431 8 13 9.34315 13 11C13 12.6569 14.3431 14 16 14Z" fill="#2196F3"/>
</g>
<defs>
<clipPath id="clip0_1267_862">
<rect width="32" height="32" fill="white"/>
</clipPath>
</defs>
</svg>
