<svg width="18" height="18" viewBox="0 0 18 18" fill="none" xmlns="http://www.w3.org/2000/svg">
<path d="M3.75 12C3.75 11.6933 3.56329 11.4175 3.27854 11.3036C3.00146 11.1928 2.3553 10.7825 1.78031 10.0406C1.21946 9.31689 0.75 8.30802 0.75 7C0.75 3.71271 4.25732 0.75 9 0.75C11.3602 0.75 13.4438 1.38315 14.9172 2.47576C16.3743 3.55628 17.25 5.09148 17.25 7C17.25 8.75527 16.4932 10.1614 15.175 11.15C13.8376 12.1531 11.8841 12.75 9.5 12.75C9.34745 12.75 9.19852 12.7965 9.07309 12.8834L3.75 16.5686V12Z" stroke="#1B141F" stroke-width="1.5" stroke-linecap="round" stroke-linejoin="round"/>
</svg>
