<svg width="32" height="32" viewBox="0 0 32 32" fill="none" xmlns="http://www.w3.org/2000/svg">
<g clip-path="url(#clip0_1259_2520)">
<path fill-rule="evenodd" clip-rule="evenodd" d="M9.24707 23.5046C9.24707 23.0172 9.67614 22.6222 10.2054 22.6222H21.7054C22.2347 22.6222 22.6637 23.0172 22.6637 23.5046C22.6637 23.9919 22.2347 24.3869 21.7054 24.3869H10.2054C9.67614 24.3869 9.24707 23.9919 9.24707 23.5046Z" fill="white" stroke="white"/>
<path fill-rule="evenodd" clip-rule="evenodd" d="M13.9227 8.77532C15.0454 7.74156 16.8657 7.74156 17.9885 8.77532L20.4481 11.0399C20.7398 11.3085 21.1853 11.375 21.5543 11.2052L22.2354 10.8917C23.7063 10.2145 25.3321 11.5128 24.8121 12.9493L23.0516 17.8122C22.6603 18.8931 21.5617 19.6222 20.3242 19.6222H11.587C10.3496 19.6222 9.2509 18.8931 8.85958 17.8122L7.09908 12.9493C6.57902 11.5128 8.20489 10.2145 9.67584 10.8917L10.3569 11.2052C10.7258 11.375 11.1714 11.3085 11.4631 11.0399L13.9227 8.77532Z" fill="white" stroke="white"/>
</g>
<defs>
<clipPath id="clip0_1259_2520">
<rect width="32" height="32" fill="white"/>
</clipPath>
</defs>
</svg>
