<svg width="19" height="19" viewBox="0 0 19 19" fill="none" xmlns="http://www.w3.org/2000/svg">
<path d="M12.4451 1.6156C12.4454 1.61526 12.4457 1.61494 12.446 1.61463C12.5888 1.52171 13.0745 1.24101 13.7384 1.20205C14.3847 1.16412 15.2877 1.3484 16.2981 2.35876C17.3084 3.36911 17.4927 4.27212 17.4548 4.91846C17.4158 5.58233 17.1351 6.06805 17.0422 6.21082C17.0419 6.21113 17.0416 6.21146 17.0413 6.2118L7.32085 15.9322C7.29023 15.9628 7.25219 15.985 7.21044 15.9965L1.3556 17.6087C1.16857 17.6602 0.996699 17.4883 1.0482 17.3013L2.6604 11.4464C2.6719 11.4047 2.69404 11.3666 2.72466 11.336L12.4451 1.6156Z" stroke="#1B141F" stroke-width="1.5"/>
</svg>
