<svg width="32" height="32" viewBox="0 0 32 32" fill="none" xmlns="http://www.w3.org/2000/svg">
<path d="M19.4451 7.6156C19.4454 7.61526 19.4457 7.61494 19.446 7.61463C19.5888 7.52171 20.0745 7.24101 20.7384 7.20205C21.3847 7.16412 22.2877 7.3484 23.2981 8.35876C24.3084 9.36911 24.4927 10.2721 24.4548 10.9185C24.4158 11.5823 24.1351 12.0681 24.0422 12.2108C24.0419 12.2111 24.0416 12.2115 24.0413 12.2118L14.3208 21.9322C14.2902 21.9628 14.2522 21.985 14.2104 21.9965L8.3556 23.6087C8.16857 23.6602 7.9967 23.4883 8.0482 23.3013L9.6604 17.4464C9.6719 17.4047 9.69404 17.3666 9.72466 17.336L19.4451 7.6156Z" stroke="#1B141F" stroke-width="1.5"/>
</svg>
