<svg width="18" height="18" viewBox="0 0 18 18" fill="none" xmlns="http://www.w3.org/2000/svg">
<mask id="path-1-inside-1_1231_838" fill="white">
<path d="M4.55064 0.0435162C4.26072 0.175976 4.16811 0.376674 4.16811 0.866375V1.2196L3.45539 1.24368C2.90776 1.25974 2.66213 1.28382 2.4165 1.34805C1.48634 1.5929 0.749455 2.18696 0.34276 3.01383C-0.0276951 3.76444 0.000491688 3.19446 0.000491688 9.60072C0.000491688 15.7702 -0.015615 15.3447 0.221959 15.9708C0.487721 16.6853 1.2689 17.464 1.98565 17.729C2.61381 17.9658 2.12255 17.9497 9.00013 17.9497C15.8777 17.9497 15.3865 17.9658 16.0146 17.729C16.7314 17.464 17.5125 16.6853 17.7783 15.9708C18.0159 15.3447 17.9998 15.7702 17.9998 9.60072V3.94106L17.9072 3.62797C17.6333 2.68469 16.9931 1.93408 16.1193 1.5367C15.6683 1.32798 15.314 1.26376 14.5288 1.23967L13.8402 1.22362L13.8241 0.806166C13.812 0.360618 13.7718 0.268296 13.5342 0.0916824C13.3771 -0.024722 12.9986 -0.024722 12.8416 0.0916824C12.604 0.268296 12.5637 0.360616 12.5517 0.814192L12.5356 1.23164H9.00013H5.4647L5.4486 0.814192C5.43652 0.36463 5.39625 0.268297 5.16673 0.0956974C5.02982 -0.0046512 4.71171 -0.0327488 4.55064 0.0435162ZM4.16811 2.90546C4.16811 3.23861 4.18422 3.32291 4.26072 3.45537C4.50232 3.88486 5.12243 3.88486 5.36404 3.45537C5.44054 3.32291 5.45665 3.23861 5.45665 2.90546V2.51611H9.00013H12.5436V2.90546C12.5436 3.23861 12.5597 3.32291 12.6362 3.45537C12.8778 3.88486 13.4979 3.88486 13.7395 3.45537C13.816 3.32291 13.8322 3.23861 13.8322 2.90144V2.50406L14.4885 2.52413C15.2214 2.54822 15.4952 2.61244 15.8616 2.85729C16.4656 3.25869 16.7314 3.82064 16.7314 4.69969V5.12517H9.00013H1.2689L1.27292 4.67159C1.27292 4.38259 1.29708 4.12971 1.34138 3.95711C1.48231 3.41924 1.85679 2.97771 2.37624 2.73286C2.72656 2.56427 2.95608 2.52815 3.63659 2.52012L4.16811 2.51611V2.90546ZM16.7314 10.6604C16.7314 13.3819 16.7153 14.9874 16.6911 15.1239C16.5904 15.6497 16.1918 16.1916 15.7287 16.4405C15.2375 16.7014 15.6281 16.6853 9.00013 16.6853C2.37221 16.6853 2.7628 16.7014 2.27154 16.4405C1.98967 16.2879 1.63935 15.9347 1.49439 15.6497C1.26084 15.1921 1.2689 15.3607 1.2689 10.6965V6.40963H9.00013H16.7314V10.6604Z"/>
</mask>
<path d="M4.55064 0.0435162L5.19257 1.39922L5.18331 1.4036L5.17399 1.40786L4.55064 0.0435162ZM4.16811 1.2196H5.66811V2.66977L4.21877 2.71875L4.16811 1.2196ZM3.45539 1.24368L3.50605 2.74284L3.49935 2.74304L3.45539 1.24368ZM2.4165 1.34805L2.03466 -0.102539L2.03706 -0.103167L2.4165 1.34805ZM0.34276 3.01383L1.68876 3.67586L1.68786 3.67769L0.34276 3.01383ZM0.221959 15.9708L1.62444 15.4387L1.62785 15.4479L0.221959 15.9708ZM1.98565 17.729L2.50569 16.322L2.5148 16.3254L1.98565 17.729ZM16.0146 17.729L15.4854 16.3254L15.4946 16.322L16.0146 17.729ZM17.7783 15.9708L16.3724 15.4479L16.3759 15.4387L17.7783 15.9708ZM17.9998 3.94106L19.4382 3.51557L19.4998 3.72385V3.94106H17.9998ZM17.9072 3.62797L16.4687 4.05346L16.4666 4.04613L17.9072 3.62797ZM16.1193 1.5367L15.4983 2.90216L15.4893 2.89798L16.1193 1.5367ZM14.5288 1.23967L14.5637 -0.259961L14.5748 -0.259623L14.5288 1.23967ZM13.8402 1.22362L13.8052 2.72321L12.3957 2.69034L12.3413 1.28145L13.8402 1.22362ZM13.8241 0.806166L12.3252 0.864004L12.3249 0.855414L12.3246 0.84682L13.8241 0.806166ZM13.5342 0.0916824L14.4274 -1.11337L14.4291 -1.11212L13.5342 0.0916824ZM12.8416 0.0916824L11.9467 -1.11212L11.9484 -1.11337L12.8416 0.0916824ZM12.5517 0.814192L14.0511 0.854127L14.0509 0.86308L14.0506 0.87203L12.5517 0.814192ZM12.5356 1.23164L14.0344 1.28948L13.9788 2.73164H12.5356V1.23164ZM5.4647 1.23164V2.73164H4.02146L3.96582 1.28948L5.4647 1.23164ZM5.4486 0.814192L3.94971 0.872024L3.94937 0.863255L3.94914 0.854483L5.4486 0.814192ZM5.16673 0.0956974L6.05349 -1.11412L6.06091 -1.10868L6.06826 -1.10315L5.16673 0.0956974ZM4.26072 3.45537L5.55963 2.70514L5.56389 2.71252L5.56807 2.71995L4.26072 3.45537ZM5.36404 3.45537L4.05669 2.71995L4.06087 2.71252L4.06513 2.70514L5.36404 3.45537ZM5.45665 2.51611H3.95665V1.01611H5.45665V2.51611ZM12.5436 2.51611V1.01611H14.0436V2.51611H12.5436ZM12.6362 3.45537L13.9351 2.70514L13.9394 2.71252L13.9436 2.71995L12.6362 3.45537ZM13.7395 3.45537L12.4322 2.71995L12.4364 2.71252L12.4406 2.70514L13.7395 3.45537ZM13.8322 2.50406H12.3322V0.957497L13.878 1.00476L13.8322 2.50406ZM14.4885 2.52413L14.5343 1.02483L14.5378 1.02494L14.4885 2.52413ZM15.8616 2.85729L15.0314 4.10659L15.0282 4.10448L15.8616 2.85729ZM16.7314 5.12517H18.2314V6.62517H16.7314V5.12517ZM1.2689 5.12517V6.62517H-0.244478L-0.231044 5.11185L1.2689 5.12517ZM1.27292 4.67159L2.77298 4.67159L2.77286 4.68491L1.27292 4.67159ZM1.34138 3.95711L-0.111561 3.58425L-0.109639 3.57691L1.34138 3.95711ZM2.37624 2.73286L3.02671 4.08454L3.0158 4.08968L2.37624 2.73286ZM3.63659 2.52012L3.61889 1.02021L3.62526 1.02016L3.63659 2.52012ZM4.16811 2.51611L4.15679 1.01615L5.66811 1.00474V2.51611H4.16811ZM16.6911 15.1239L18.1681 15.3854L18.1663 15.3957L18.1643 15.406L16.6911 15.1239ZM15.7287 16.4405L16.4388 17.7618L16.4323 17.7652L15.7287 16.4405ZM2.27154 16.4405L1.56794 17.7653L1.55765 17.7597L2.27154 16.4405ZM1.49439 15.6497L2.83044 14.9678L2.83137 14.9697L1.49439 15.6497ZM1.2689 6.40963H-0.231103V4.90963H1.2689V6.40963ZM16.7314 6.40963V4.90963H18.2314V6.40963H16.7314ZM4.55064 0.0435162L5.17399 1.40786C5.20253 1.39482 5.28476 1.35365 5.37925 1.26748C5.48084 1.17485 5.55935 1.06427 5.61121 0.952566C5.65836 0.85099 5.66966 0.778215 5.67112 0.768307C5.67231 0.760193 5.66811 0.785697 5.66811 0.866375H4.16811H2.66811C2.66811 0.572405 2.68743 0.125987 2.89011 -0.310606C3.13643 -0.841223 3.54543 -1.14636 3.9273 -1.32083L4.55064 0.0435162ZM4.16811 0.866375H5.66811V1.2196H4.16811H2.66811V0.866375H4.16811ZM4.16811 1.2196L4.21877 2.71875L3.50605 2.74283L3.45539 1.24368L3.40473 -0.25546L4.11745 -0.279544L4.16811 1.2196ZM3.45539 1.24368L3.49935 2.74304C2.96254 2.75878 2.86421 2.78141 2.79594 2.79926L2.4165 1.34805L2.03706 -0.103167C2.46005 -0.213764 2.85297 -0.239298 3.41143 -0.255671L3.45539 1.24368ZM2.4165 1.34805L2.79835 2.79863C2.27077 2.93751 1.89553 3.25547 1.68876 3.67586L0.34276 3.01383L-1.00324 2.35181C-0.396619 1.11845 0.701911 0.248287 2.03466 -0.102537L2.4165 1.34805ZM0.34276 3.01383L1.68786 3.67769C1.65728 3.73965 1.62962 3.79303 1.60784 3.83478C1.58362 3.88123 1.5723 3.90268 1.56097 3.92513C1.54417 3.95846 1.5515 3.94721 1.55959 3.9223C1.57276 3.88177 1.54861 3.9209 1.53067 4.2646C1.4941 4.96513 1.50049 6.35956 1.50049 9.60072H0.000491688H-1.49951C-1.49951 6.43562 -1.50721 4.91191 -1.46526 4.10821C-1.44394 3.6998 -1.40568 3.3403 -1.2936 2.99534C-1.1998 2.7066 -1.01512 2.37588 -1.00234 2.34997L0.34276 3.01383ZM0.000491688 9.60072H1.50049C1.50049 12.7099 1.49675 14.1037 1.52124 14.8127C1.52714 14.9834 1.53411 15.0938 1.54098 15.1673C1.54766 15.2388 1.5529 15.2603 1.55189 15.2557C1.54944 15.2446 1.54594 15.2361 1.55126 15.2505C1.58418 15.3396 1.55912 15.2667 1.62441 15.4387L0.221959 15.9708L-1.18049 16.5029C-1.20017 16.4511 -1.31457 16.188 -1.37764 15.9021C-1.44085 15.6156 -1.46365 15.3018 -1.47697 14.9163C-1.50382 14.1391 -1.49951 12.661 -1.49951 9.60072H0.000491688ZM0.221959 15.9708L1.62785 15.4479C1.66565 15.5495 1.78295 15.7461 1.99366 15.9561C2.20422 16.166 2.40203 16.2837 2.50568 16.322L1.98565 17.729L1.46561 19.1359C0.852518 18.9093 0.301359 18.5051 -0.124296 18.0808C-0.549797 17.6567 -0.955971 17.1066 -1.18393 16.4938L0.221959 15.9708ZM1.98565 17.729L2.5148 16.3254C2.56705 16.3451 2.61272 16.3632 2.64417 16.3756C2.67939 16.3896 2.69394 16.3952 2.70546 16.3995C2.71496 16.403 2.70316 16.3986 2.69109 16.3961C2.68783 16.3954 2.71393 16.4013 2.79699 16.4085C2.88137 16.4158 3.0061 16.4229 3.19641 16.4289C3.98081 16.4535 5.53905 16.4497 9.00013 16.4497V17.9497V19.4497C5.58364 19.4497 3.94872 19.454 3.10231 19.4274C2.6869 19.4144 2.35877 19.3924 2.06793 19.3306C1.77045 19.2675 1.49519 19.1471 1.45649 19.1325L1.98565 17.729ZM9.00013 17.9497V16.4497C12.4612 16.4497 14.0195 16.4535 14.8039 16.4289C14.9942 16.4229 15.1189 16.4158 15.2033 16.4085C15.2863 16.4013 15.3124 16.3954 15.3092 16.3961C15.2971 16.3986 15.2853 16.403 15.2948 16.3995C15.3063 16.3952 15.3209 16.3896 15.3561 16.3756C15.3875 16.3632 15.4332 16.3451 15.4855 16.3254L16.0146 17.729L16.5438 19.1325C16.5051 19.1471 16.2298 19.2675 15.9323 19.3306C15.6415 19.3924 15.3134 19.4144 14.898 19.4274C14.0515 19.454 12.4166 19.4497 9.00013 19.4497V17.9497ZM16.0146 17.729L15.4946 16.322C15.5982 16.2837 15.796 16.166 16.0066 15.9561C16.2173 15.7461 16.3346 15.5495 16.3724 15.4479L17.7783 15.9708L19.1842 16.4938C18.9562 17.1066 18.5501 17.6567 18.1246 18.0808C17.6989 18.5051 17.1477 18.9093 16.5347 19.1359L16.0146 17.729ZM17.7783 15.9708L16.3759 15.4387C16.4411 15.2667 16.4161 15.3396 16.449 15.2505C16.4543 15.2361 16.4508 15.2446 16.4484 15.2557C16.4474 15.2603 16.4526 15.2388 16.4593 15.1673C16.4662 15.0938 16.4731 14.9834 16.479 14.8127C16.5035 14.1037 16.4998 12.7099 16.4998 9.60072H17.9998H19.4998C19.4998 12.661 19.5041 14.1391 19.4772 14.9163C19.4639 15.3018 19.4411 15.6156 19.3779 15.9021C19.3148 16.188 19.2004 16.4511 19.1808 16.5029L17.7783 15.9708ZM17.9998 9.60072H16.4998V3.94106H17.9998H19.4998V9.60072H17.9998ZM17.9998 3.94106L16.5614 4.36654L16.4688 4.05345L17.9072 3.62797L19.3455 3.20248L19.4382 3.51557L17.9998 3.94106ZM17.9072 3.62797L16.4666 4.04613C16.3109 3.50982 15.9615 3.11278 15.4983 2.90213L16.1193 1.5367L16.7403 0.171273C18.0247 0.75539 18.9557 1.85956 19.3477 3.20981L17.9072 3.62797ZM16.1193 1.5367L15.4893 2.89798C15.361 2.83861 15.2791 2.81298 15.1754 2.79372C15.0465 2.76977 14.8526 2.75031 14.4828 2.73897L14.5288 1.23967L14.5748 -0.259623C15.4515 -0.232732 16.0359 -0.154745 16.7493 0.175427L16.1193 1.5367ZM14.5288 1.23967L14.4938 2.73926L13.8052 2.72321L13.8402 1.22362L13.8752 -0.275977L14.5637 -0.259921L14.5288 1.23967ZM13.8402 1.22362L12.3413 1.28145L12.3252 0.864004L13.8241 0.806166L15.323 0.748327L15.3391 1.16578L13.8402 1.22362ZM13.8241 0.806166L12.3246 0.84682C12.3234 0.800667 12.322 0.767964 12.3206 0.744316C12.3192 0.720468 12.3181 0.712778 12.3185 0.716006C12.319 0.719544 12.3287 0.8019 12.3755 0.916213C12.4287 1.0462 12.5032 1.154 12.5762 1.23305C12.6336 1.29517 12.6745 1.32164 12.6393 1.29548L13.5342 0.0916824L14.4291 -1.11212C14.6023 -0.983383 14.9502 -0.713101 15.1519 -0.220065C15.3117 0.170405 15.3183 0.572555 15.3235 0.765511L13.8241 0.806166ZM13.5342 0.0916824L12.641 1.29673C12.8168 1.42709 12.9713 1.47015 13.0284 1.48398C13.0989 1.50107 13.152 1.50438 13.1879 1.50438C13.2237 1.50438 13.2769 1.50107 13.3474 1.48398C13.4044 1.47015 13.559 1.42709 13.7348 1.29673L12.8416 0.0916824L11.9484 -1.11337C12.4055 -1.45224 12.9239 -1.49562 13.1879 -1.49562C13.4518 -1.49562 13.9702 -1.45224 14.4274 -1.11337L13.5342 0.0916824ZM12.8416 0.0916824L13.7365 1.29548C13.7012 1.32174 13.7429 1.29464 13.8011 1.23148C13.8752 1.151 13.9496 1.04227 14.0023 0.912413C14.0483 0.798842 14.0575 0.717763 14.0576 0.716661C14.0579 0.714484 14.0567 0.723256 14.0553 0.748212C14.0538 0.772957 14.0524 0.806805 14.0511 0.854127L12.5517 0.814192L11.0522 0.774257C11.0574 0.578667 11.0638 0.175751 11.2219 -0.21426C11.4231 -0.710969 11.7724 -0.982585 11.9467 -1.11212L12.8416 0.0916824ZM12.5517 0.814192L14.0506 0.87203L14.0344 1.28948L12.5356 1.23164L11.0367 1.17381L11.0528 0.756353L12.5517 0.814192ZM12.5356 1.23164V2.73164H9.00013V1.23164V-0.268356H12.5356V1.23164ZM9.00013 1.23164V2.73164H5.4647V1.23164V-0.268356H9.00013V1.23164ZM5.4647 1.23164L3.96582 1.28948L3.94971 0.872024L5.4486 0.814192L6.94748 0.75636L6.96359 1.17381L5.4647 1.23164ZM5.4486 0.814192L3.94914 0.854483C3.94788 0.807773 3.94647 0.774129 3.94502 0.749402C3.94355 0.724475 3.94241 0.715183 3.94258 0.716557C3.94275 0.718039 3.94507 0.737199 3.95215 0.768256C3.95946 0.800293 3.97225 0.846891 3.99426 0.902563C4.04391 1.02817 4.11528 1.13679 4.19021 1.22017C4.25026 1.287 4.2948 1.31681 4.26519 1.29455L5.16673 0.0956974L6.06826 -1.10315C6.25072 -0.965946 6.58939 -0.693019 6.78415 -0.200395C6.93555 0.182574 6.94276 0.576986 6.94805 0.7739L5.4486 0.814192ZM5.16673 0.0956974L4.27997 1.30552C4.4274 1.41358 4.55357 1.45592 4.60238 1.47064C4.66204 1.48862 4.70776 1.49516 4.73932 1.49787C4.77115 1.5006 4.81533 1.50175 4.8735 1.4948C4.92248 1.48895 5.04204 1.47049 5.19257 1.39922L4.55064 0.0435162L3.90872 -1.31219C4.32814 -1.51078 4.75081 -1.5122 4.99617 -1.49112C5.23372 -1.4707 5.66528 -1.39867 6.05349 -1.11412L5.16673 0.0956974ZM4.16811 2.90546H5.66811C5.66811 2.98016 5.6691 3.02036 5.67012 3.04197C5.67115 3.06349 5.67129 3.04379 5.66416 3.00223C5.65573 2.95305 5.64001 2.88922 5.61306 2.81953C5.58786 2.75433 5.56329 2.71147 5.55963 2.70514L4.26072 3.45537L2.96182 4.2056C2.85868 4.02702 2.75799 3.80486 2.70729 3.50912C2.66947 3.28851 2.66811 3.06568 2.66811 2.90546H4.16811ZM4.26072 3.45537L5.56807 2.71995C5.23621 2.13 4.38855 2.13 4.05669 2.71995L5.36404 3.45537L6.67138 4.19079C5.85632 5.63972 3.76844 5.63972 2.95338 4.19079L4.26072 3.45537ZM5.36404 3.45537L4.06513 2.70514C4.06147 2.71147 4.0369 2.75433 4.0117 2.81953C3.98475 2.88922 3.96903 2.95305 3.9606 3.00223C3.95347 3.04379 3.95361 3.06349 3.95463 3.04197C3.95566 3.02036 3.95665 2.98016 3.95665 2.90546H5.45665H6.95665C6.95665 3.06568 6.95529 3.28851 6.91747 3.50912C6.86677 3.80487 6.76608 4.02702 6.66294 4.2056L5.36404 3.45537ZM5.45665 2.90546H3.95665V2.51611H5.45665H6.95665V2.90546H5.45665ZM5.45665 2.51611V1.01611H9.00013V2.51611V4.01611H5.45665V2.51611ZM9.00013 2.51611V1.01611H12.5436V2.51611V4.01611H9.00013V2.51611ZM12.5436 2.51611H14.0436V2.90546H12.5436H11.0436V2.51611H12.5436ZM12.5436 2.90546H14.0436C14.0436 2.98016 14.0446 3.02036 14.0456 3.04197C14.0467 3.06349 14.0468 3.04379 14.0397 3.00223C14.0312 2.95305 14.0155 2.88922 13.9886 2.81953C13.9634 2.75433 13.9388 2.71147 13.9351 2.70514L12.6362 3.45537L11.3373 4.2056C11.2342 4.02702 11.1335 3.80486 11.0828 3.50912C11.045 3.2885 11.0436 3.06568 11.0436 2.90546H12.5436ZM12.6362 3.45537L13.9436 2.71995C13.6117 2.13 12.7641 2.13 12.4322 2.71995L13.7395 3.45537L15.0469 4.19079C14.2318 5.63972 12.1439 5.63972 11.3289 4.19079L12.6362 3.45537ZM13.7395 3.45537L12.4406 2.70514C12.437 2.7115 12.4122 2.75471 12.3868 2.8204C12.3598 2.89054 12.3441 2.9545 12.3358 3.00328C12.3288 3.04437 12.329 3.06345 12.3301 3.04098C12.3312 3.01849 12.3322 2.97729 12.3322 2.90144H13.8322H15.3322C15.3322 3.06321 15.3308 3.28661 15.2932 3.50707C15.2427 3.80364 15.142 4.02628 15.0384 4.2056L13.7395 3.45537ZM13.8322 2.90144H12.3322V2.50406H13.8322H15.3322V2.90144H13.8322ZM13.8322 2.50406L13.878 1.00476L14.5343 1.02483L14.4885 2.52413L14.4427 4.02343L13.7863 4.00336L13.8322 2.50406ZM14.4885 2.52413L14.5378 1.02494C14.9192 1.03748 15.3004 1.06196 15.6643 1.14977C16.0768 1.24931 16.3982 1.41176 16.695 1.6101L15.8616 2.85729L15.0282 4.10448C15.0055 4.08933 14.9904 4.08015 14.981 4.07474C14.972 4.06955 14.968 4.06777 14.968 4.06777C14.9679 4.06771 14.9683 4.06787 14.9689 4.06815C14.9696 4.06842 14.9702 4.06862 14.9704 4.06871C14.9713 4.069 14.9686 4.06799 14.9606 4.06608C14.9128 4.05454 14.7906 4.03487 14.4392 4.02332L14.4885 2.52413ZM15.8616 2.85729L16.6918 1.608C17.1914 1.94002 17.6063 2.38063 17.8793 2.9588C18.1438 3.51885 18.2314 4.11509 18.2314 4.69969H16.7314H15.2314C15.2314 4.40524 15.186 4.28098 15.1666 4.23994C15.1558 4.21702 15.1358 4.17596 15.0314 4.10658L15.8616 2.85729ZM16.7314 4.69969H18.2314V5.12517H16.7314H15.2314V4.69969H16.7314ZM16.7314 5.12517V6.62517H9.00013V5.12517V3.62517H16.7314V5.12517ZM9.00013 5.12517V6.62517H1.2689V5.12517V3.62517H9.00013V5.12517ZM1.2689 5.12517L-0.231044 5.11185L-0.227017 4.65828L1.27292 4.67159L2.77286 4.68491L2.76884 5.13849L1.2689 5.12517ZM1.27292 4.67159H-0.227076C-0.227076 4.32486 -0.200402 3.93052 -0.111543 3.58425L1.34138 3.95711L2.7943 4.32997C2.79743 4.31778 2.79054 4.34238 2.78371 4.41366C2.77735 4.48007 2.77292 4.56724 2.77292 4.67159H1.27292ZM1.34138 3.95711L-0.109639 3.57691C0.148801 2.59059 0.833464 1.80179 1.73667 1.37604L2.37624 2.73286L3.0158 4.08968C2.88012 4.15363 2.81582 4.2479 2.79239 4.33731L1.34138 3.95711ZM2.37624 2.73286L1.72579 1.38122C2.37554 1.06854 2.87079 1.02905 3.61889 1.02022L3.63659 2.52012L3.65428 4.02001C3.3178 4.02398 3.1918 4.03541 3.12973 4.04578C3.10975 4.04912 3.10363 4.0513 3.10088 4.05222C3.09537 4.05406 3.07535 4.06108 3.02668 4.08449L2.37624 2.73286ZM3.63659 2.52012L3.62526 1.02016L4.15679 1.01615L4.16811 2.51611L4.17943 4.01606L3.64791 4.02008L3.63659 2.52012ZM4.16811 2.51611H5.66811V2.90546H4.16811H2.66811V2.51611H4.16811ZM16.7314 10.6604H18.2314C18.2314 12.0233 18.2273 13.1102 18.2202 13.8755C18.2167 14.2573 18.2123 14.5638 18.2072 14.7863C18.2046 14.8967 18.2017 14.9932 18.1983 15.0708C18.1969 15.1027 18.1919 15.2511 18.1681 15.3854L16.6911 15.1239L15.2141 14.8624C15.1963 14.9626 15.1971 15.0309 15.2012 14.9383C15.2033 14.8913 15.2056 14.8188 15.208 14.7169C15.2127 14.5149 15.2169 14.2243 15.2204 13.8476C15.2273 13.0956 15.2314 12.019 15.2314 10.6604H16.7314ZM16.6911 15.1239L18.1643 15.406C17.9793 16.3726 17.3023 17.2977 16.4388 17.7618L15.7287 16.4405L15.0186 15.1192C15.0153 15.121 15.0292 15.1137 15.0547 15.0907C15.0797 15.0681 15.1082 15.0373 15.1356 14.9998C15.1631 14.9623 15.1843 14.9253 15.199 14.8932C15.2061 14.8776 15.2109 14.8648 15.214 14.8554C15.2171 14.846 15.2179 14.8414 15.2179 14.8419L16.6911 15.1239ZM15.7287 16.4405L16.4323 17.7652C16.4301 17.7664 16.1367 17.9482 15.7778 18.041C15.4676 18.1213 15.1164 18.1454 14.7198 18.1598C13.8919 18.1897 12.2889 18.1853 9.00013 18.1853V16.6853V15.1853C12.3392 15.1853 13.8549 15.189 14.6116 15.1617C15.0072 15.1474 15.0648 15.1267 15.0266 15.1366C14.9397 15.1591 14.7817 15.245 15.0251 15.1157L15.7287 16.4405ZM9.00013 16.6853V18.1853C5.71132 18.1853 4.10834 18.1897 3.28047 18.1598C2.88382 18.1454 2.53271 18.1213 2.22245 18.041C1.86353 17.9482 1.57012 17.7664 1.56796 17.7652L2.27154 16.4405L2.97512 15.1157C3.21859 15.245 3.06058 15.1591 2.97371 15.1366C2.9355 15.1267 2.99311 15.1474 3.3887 15.1617C4.14534 15.189 5.66102 15.1853 9.00013 15.1853V16.6853ZM2.27154 16.4405L1.55765 17.7597C1.24676 17.5915 0.971703 17.3592 0.763289 17.1477C0.556153 16.9375 0.322492 16.6543 0.15741 16.3298L1.49439 15.6497L2.83137 14.9697C2.81667 14.9408 2.81232 14.9392 2.8301 14.9625C2.84587 14.9832 2.86977 15.0112 2.89996 15.0419C2.93009 15.0724 2.95874 15.0977 2.98113 15.1154C3.00589 15.1349 3.00833 15.1336 2.98543 15.1212L2.27154 16.4405ZM1.49439 15.6497L0.158348 16.3316C0.128147 16.2725 -0.00702104 16.0343 -0.0895854 15.7219C-0.164507 15.4384 -0.189882 15.1379 -0.204389 14.8187C-0.233592 14.1761 -0.231103 13.0002 -0.231103 10.6965H1.2689H2.7689C2.7689 13.057 2.76736 14.1289 2.79252 14.6825C2.80519 14.9614 2.82159 14.9961 2.81085 14.9554C2.79246 14.8858 2.74386 14.7982 2.83044 14.9678L1.49439 15.6497ZM1.2689 10.6965H-0.231103V6.40963H1.2689H2.7689V10.6965H1.2689ZM1.2689 6.40963V4.90963H9.00013V6.40963V7.90963H1.2689V6.40963ZM9.00013 6.40963V4.90963H16.7314V6.40963V7.90963H9.00013V6.40963ZM16.7314 6.40963H18.2314V10.6604H16.7314H15.2314V6.40963H16.7314Z" fill="black" mask="url(#path-1-inside-1_1231_838)"/>
<path d="M8.66592 7.53356C8.15051 7.66602 7.89683 7.92291 7.49818 8.72169L7.19216 9.32779L6.71701 9.39603C6.02442 9.49638 5.81906 9.54053 5.6298 9.62884C5.35196 9.75729 5.11036 10.0021 4.9654 10.2952C4.8446 10.536 4.83252 10.5962 4.83252 10.9253C4.83252 11.4672 4.92513 11.6398 5.56135 12.258C5.83516 12.5269 6.06066 12.7677 6.06066 12.7918C6.06066 12.8199 6.01234 13.1129 5.95596 13.4501C5.83516 14.1445 5.84724 14.4135 5.99623 14.7426C6.11703 15.0035 6.38682 15.2805 6.67271 15.429C6.86599 15.5293 6.9264 15.5414 7.29685 15.5414H7.7116L8.32365 15.2283C8.6619 15.0557 8.97195 14.9192 9.00819 14.9192C9.04846 14.9192 9.35046 15.0597 9.68467 15.2283L10.2887 15.5414H10.6994C11.094 15.5414 11.1262 15.5334 11.3678 15.4049C11.6618 15.2443 11.8671 15.0276 12.004 14.7346C12.153 14.4135 12.1611 14.1445 12.0443 13.4501C11.9879 13.1129 11.9396 12.8199 11.9396 12.7958C11.9396 12.7677 12.1651 12.5269 12.4389 12.258C13.0711 11.6398 13.1678 11.4672 13.1678 10.9253C13.1678 10.5962 13.1557 10.536 13.0349 10.2952C12.8899 9.99812 12.6483 9.75729 12.3624 9.62483C12.1893 9.54455 11.8591 9.47631 11.1423 9.37596L10.8081 9.33181L10.5061 8.72972C10.1518 8.02728 9.96251 7.79848 9.60414 7.63792C9.33435 7.51751 8.9196 7.46934 8.66592 7.53356ZM9.40683 9.40005C9.57595 9.72919 9.77729 10.0744 9.86185 10.1707C10.1075 10.4517 10.4055 10.5681 11.1705 10.6805C11.8027 10.7768 11.8953 10.8089 11.8993 10.9294C11.8993 10.9575 11.6739 11.1983 11.396 11.4753C10.6269 12.2379 10.5625 12.4506 10.7517 13.5304C10.9048 14.4054 10.8887 14.4215 10.1397 14.0241C9.47126 13.6669 9.35449 13.6267 9.00014 13.6267C8.64579 13.6267 8.55318 13.6588 7.86864 14.0201C7.1076 14.4175 7.09552 14.4094 7.24853 13.5304C7.43778 12.4506 7.37336 12.2419 6.60426 11.4712C6.32642 11.1983 6.10092 10.9534 6.10092 10.9294C6.10495 10.8089 6.20159 10.7768 6.82975 10.6845C7.90085 10.524 8.10621 10.3835 8.54915 9.47631C8.87934 8.81 8.9035 8.76986 9.01222 8.78591C9.08067 8.79394 9.16523 8.9264 9.40683 9.40005Z" fill="black"/>
</svg>
