<svg width="18" height="19" viewBox="0 0 18 19" fill="none" xmlns="http://www.w3.org/2000/svg">
<path fill-rule="evenodd" clip-rule="evenodd" d="M9.45453 0.403426C9.18604 0.198858 8.81396 0.198858 8.54547 0.403426L1.06443 6.10327C0.629991 6.43427 0.375 6.94911 0.375 7.49527V17C0.375 18.0471 1.29995 18.75 2.25 18.75H5.80891C5.87076 18.762 5.93465 18.7682 6 18.7682H12C12.0654 18.7682 12.1292 18.762 12.1911 18.75H15.75C16.7 18.75 17.625 18.0471 17.625 17V7.49527C17.625 6.94911 17.37 6.43427 16.9356 6.10327L9.45453 0.403426ZM13 17.25H15.75C15.881 17.25 15.9839 17.2029 16.0472 17.1465C16.1092 17.0915 16.125 17.0383 16.125 17V7.49527C16.125 7.41725 16.0886 7.3437 16.0265 7.29642L9 1.94288L1.97349 7.29642C1.91143 7.3437 1.875 7.41725 1.875 7.49527V17C1.875 17.0383 1.8908 17.0915 1.95278 17.1465C2.01613 17.2029 2.11905 17.25 2.25 17.25H5V11C5 10.4477 5.44772 10 6 10H12C12.5523 10 13 10.4477 13 11V17.25ZM11.5 17.25H6.5V11.5H11.5V17.25Z" fill="#1B141F"/>
</svg>
