<svg width="32" height="32" viewBox="0 0 32 32" fill="none" xmlns="http://www.w3.org/2000/svg">
<g clip-path="url(#clip0_1296_909)">
<path fill-rule="evenodd" clip-rule="evenodd" d="M12.2827 7.11046C10.8176 7.17656 9.54773 7.53476 8.52234 8.55582C7.49338 9.58224 7.13963 10.8571 7.07336 12.307C7.03216 13.2119 6.79128 20.0485 7.48979 21.8414C7.96085 23.0509 8.8886 23.9809 10.1092 24.4535C10.6788 24.675 11.3289 24.825 12.2827 24.8688C20.2574 25.2297 23.2136 25.0332 24.4602 21.8414C24.6814 21.2732 24.8336 20.6236 24.8757 19.6722C25.2402 11.677 24.8166 9.94403 23.4267 8.55582C22.3243 7.45614 21.0276 6.70757 12.2827 7.11046ZM12.3561 23.2608C11.483 23.2215 11.0092 23.076 10.6931 22.9536C9.89787 22.6445 9.30055 22.0497 8.99338 21.2591C8.46144 19.8968 8.63786 13.4265 8.68533 12.3795C8.73189 11.354 8.93966 10.4167 9.66325 9.69312C10.5588 8.7998 11.7158 8.36199 19.5938 8.71754C20.6219 8.76399 21.5613 8.97132 22.2867 9.69312C23.1822 10.5864 23.6264 11.7524 23.2646 19.6002C23.2252 20.4711 23.0793 20.9437 22.9566 21.2591C22.1461 23.336 20.2816 23.6244 12.3561 23.2608ZM19.6807 11.2207C19.6807 11.812 20.1616 12.2929 20.7553 12.2929C21.3491 12.2929 21.8309 11.812 21.8309 11.2207C21.8309 10.6293 21.3491 10.1488 20.7553 10.1488C20.1616 10.1488 19.6807 10.6293 19.6807 11.2207ZM11.3764 15.9892C11.3764 18.5226 13.4352 20.5766 15.975 20.5766C18.5147 20.5766 20.5735 18.5226 20.5735 15.9892C20.5735 13.4557 18.5147 11.403 15.975 11.403C13.4352 11.403 11.3764 13.4557 11.3764 15.9892ZM12.9902 15.9892C12.9902 14.3455 14.3263 13.0119 15.975 13.0119C17.6237 13.0119 18.9598 14.3455 18.9598 15.9892C18.9598 17.6338 17.6237 18.9678 15.975 18.9678C14.3263 18.9678 12.9902 17.6338 12.9902 15.9892Z" fill="black"/>
</g>
<defs>
<clipPath id="clip0_1296_909">
<rect width="18" height="18" fill="white" transform="translate(7 7)"/>
</clipPath>
</defs>
</svg>
