<svg width="129" height="32" viewBox="0 0 129 32" fill="none" xmlns="http://www.w3.org/2000/svg">
<path fill-rule="evenodd" clip-rule="evenodd" d="M53.6276 22.7387C53.6276 28.5173 56.6636 31.4067 62.7356 31.4067H66.8276C67.1503 31.4067 67.4143 31.304 67.6196 31.0987C67.825 30.864 67.9276 30.6 67.9276 30.3067V26.4787C67.9276 26.156 67.825 25.892 67.6196 25.6867C67.4143 25.4813 67.1503 25.3787 66.8276 25.3787H63.4396C61.7676 25.3787 60.9316 24.2933 60.9316 22.1227V14.2907H66.4316C66.7543 14.2907 67.0183 14.188 67.2236 13.9827C67.4583 13.7773 67.5756 13.5133 67.5756 13.1907V9.62666C67.5756 9.304 67.4583 9.04 67.2236 8.83467C67.0183 8.62933 66.7543 8.52666 66.4316 8.52666H60.9316V1.26666C60.9316 0.943997 60.829 0.679998 60.6236 0.474665C60.4183 0.269331 60.1543 0.166664 59.8316 0.166664H54.7276C54.4343 0.166664 54.1703 0.269331 53.9356 0.474665C53.7303 0.679998 53.6276 0.943997 53.6276 1.26666V8.52666H50.1956C49.873 8.52666 49.5943 8.62933 49.3596 8.83467C49.1543 9.04 49.0516 9.304 49.0516 9.62666V13.1907C49.0516 13.5133 49.1543 13.7773 49.3596 13.9827C49.5943 14.188 49.873 14.2907 50.1956 14.2907H53.6276V22.7387ZM1.1 31.4067C0.806666 31.4067 0.542666 31.304 0.308001 31.0987C0.102667 30.864 0 30.6 0 30.3067V1.70667C0 1.384 0.102667 1.12 0.308001 0.914665C0.542666 0.709331 0.806666 0.606664 1.1 0.606664H13.42C17.1747 0.606664 20.1227 1.472 22.264 3.20266C24.4347 4.93333 25.52 7.456 25.52 10.7707C25.52 14.056 24.4493 16.5347 22.308 18.2067C20.1667 19.8493 17.204 20.6707 13.42 20.6707H8.184V30.3067C8.184 30.6293 8.06667 30.8933 7.832 31.0987C7.62667 31.304 7.36267 31.4067 7.04 31.4067H1.1ZM37.5526 31.8467C34.0326 31.8467 31.2606 30.8933 29.2366 28.9867C27.2126 27.08 26.1566 24.308 26.0686 20.6707V19.1307C26.1859 15.6693 27.2566 12.9707 29.2806 11.0347C31.3339 9.06933 34.0766 8.08666 37.5086 8.08666C40.0019 8.08666 42.0992 8.6 43.8006 9.62666C45.5312 10.624 46.8219 12.0027 47.6726 13.7627C48.5526 15.5227 48.9926 17.5467 48.9926 19.8347V20.8907C48.9926 21.184 48.8899 21.448 48.6846 21.6827C48.4792 21.888 48.2152 21.9907 47.8926 21.9907H33.8126V22.2987C33.8712 23.6773 34.2086 24.792 34.8246 25.6427C35.4406 26.4933 36.3352 26.9187 37.5086 26.9187C38.2419 26.9187 38.8432 26.772 39.3126 26.4787C39.7819 26.156 40.2072 25.7747 40.5886 25.3347C40.8526 25.012 41.0579 24.8213 41.2046 24.7627C41.3806 24.6747 41.6446 24.6307 41.9966 24.6307H47.4526C47.7166 24.6307 47.9366 24.7187 48.1126 24.8947C48.3179 25.0413 48.4206 25.2467 48.4206 25.5107C48.4206 26.2733 47.9806 27.1533 47.1006 28.1507C46.2499 29.148 45.0032 30.0133 43.3606 30.7467C41.7179 31.48 39.7819 31.8467 37.5526 31.8467ZM41.2486 17.6347V17.5467C41.2486 16.1093 40.9112 14.98 40.2366 14.1587C39.5912 13.308 38.6819 12.8827 37.5086 12.8827C36.3646 12.8827 35.4552 13.308 34.7806 14.1587C34.1352 14.98 33.8126 16.1093 33.8126 17.5467V17.6347H41.2486ZM70.6707 31.4067C70.348 31.4067 70.084 31.304 69.8787 31.0987C69.6734 30.8933 69.5707 30.6293 69.5707 30.3067V9.62666C69.5707 9.304 69.6734 9.04 69.8787 8.83467C70.084 8.62933 70.348 8.52666 70.6707 8.52666H75.4667C75.7894 8.52666 76.0534 8.62933 76.2587 8.83467C76.464 9.04 76.5667 9.304 76.5667 9.62666V11.1227C77.2414 10.2427 78.136 9.524 79.2507 8.96666C80.3947 8.38 81.6707 8.08666 83.0787 8.08666C86.3054 8.08666 88.5347 9.348 89.7667 11.8707C90.4707 10.756 91.4534 9.84666 92.7147 9.14266C93.976 8.43866 95.3254 8.08666 96.7627 8.08666C99.168 8.08666 101.119 8.908 102.615 10.5507C104.14 12.164 104.903 14.584 104.903 17.8107V30.3067C104.903 30.6 104.8 30.864 104.595 31.0987C104.389 31.304 104.125 31.4067 103.803 31.4067H98.6987C98.376 31.4067 98.0974 31.304 97.8627 31.0987C97.6574 30.8933 97.5547 30.6293 97.5547 30.3067V18.1187C97.5547 16.652 97.2467 15.596 96.6307 14.9507C96.044 14.3053 95.2374 13.9827 94.2107 13.9827C93.272 13.9827 92.4947 14.32 91.8787 14.9947C91.2627 15.64 90.9547 16.6813 90.9547 18.1187V30.3067C90.9547 30.6 90.852 30.864 90.6467 31.0987C90.4414 31.304 90.1774 31.4067 89.8547 31.4067H84.7507C84.428 31.4067 84.164 31.304 83.9587 31.0987C83.7534 30.8933 83.6507 30.6293 83.6507 30.3067V18.1187C83.6507 16.6813 83.328 15.64 82.6827 14.9947C82.0667 14.32 81.2747 13.9827 80.3067 13.9827C79.368 13.9827 78.576 14.32 77.9307 14.9947C77.3147 15.64 77.0067 16.6667 77.0067 18.0747V30.3067C77.0067 30.6 76.904 30.864 76.6987 31.0987C76.4934 31.304 76.2294 31.4067 75.9067 31.4067H70.6707ZM110.471 30.9667C111.762 31.5533 113.185 31.8467 114.739 31.8467C116.323 31.8467 117.687 31.568 118.831 31.0107C120.005 30.424 120.914 29.676 121.559 28.7667V30.3067C121.559 30.6 121.662 30.864 121.867 31.0987C122.102 31.304 122.366 31.4067 122.659 31.4067H127.763C128.086 31.4067 128.35 31.304 128.555 31.0987C128.761 30.864 128.863 30.6 128.863 30.3067V16.9307C128.863 14.232 127.998 12.0907 126.267 10.5067C124.537 8.89333 121.867 8.08666 118.259 8.08666C116.001 8.08666 114.094 8.43866 112.539 9.14266C111.014 9.84666 109.87 10.6827 109.107 11.6507C108.374 12.6187 107.993 13.4987 107.963 14.2907C107.934 14.5547 108.007 14.7893 108.183 14.9947C108.389 15.1707 108.638 15.2587 108.931 15.2587H113.727C113.962 15.2587 114.123 15.1413 114.211 14.9067C114.417 14.7893 114.725 14.5547 115.135 14.2027C115.605 13.792 116.059 13.4693 116.499 13.2347C116.939 13 117.497 12.8827 118.171 12.8827C119.286 12.8827 120.078 13.1467 120.547 13.6747C121.017 14.2027 121.251 15.024 121.251 16.1387V16.7547L115.751 17.5907C112.847 18.06 110.559 18.9107 108.887 20.1427C107.245 21.3747 106.423 23.0027 106.423 25.0267C106.423 26.288 106.775 27.4467 107.479 28.5027C108.213 29.5293 109.21 30.3507 110.471 30.9667ZM120.063 25.5107C119.242 26.3907 118.157 26.8307 116.807 26.8307C115.927 26.8307 115.179 26.6253 114.563 26.2147C113.947 25.7747 113.639 25.188 113.639 24.4547C113.639 23.076 114.959 22.152 117.599 21.6827L121.339 21.0227V21.6387C121.339 23.34 120.914 24.6307 120.063 25.5107ZM13.9095 9.21743C14.5886 9.37293 15.3282 8.67324 15.5614 7.65463C15.7947 6.63602 15.5055 5.49615 14.8265 5.34065C14.1474 5.18515 13.3355 6.07291 13.1023 7.09152C12.869 8.11013 13.2305 9.06193 13.9095 9.21743ZM16.0361 12.0883C16.7075 12.2404 17.6233 11.6824 17.8514 10.6753C18.0794 9.66829 17.7201 8.72866 17.0487 8.57661C16.3773 8.42456 15.6482 9.11767 15.4201 10.1247C15.1921 11.1318 15.3648 11.9363 16.0361 12.0883ZM12.5393 7.17917C12.5762 8.22974 12.0384 9.10138 11.3381 9.12604C10.6377 9.15069 10.0399 8.31902 10.003 7.26844C9.96598 6.21787 10.4912 5.03258 11.1915 5.00793C11.8919 4.98328 12.5023 6.1286 12.5393 7.17917ZM9.05055 11.0843C9.73726 10.9943 10.0134 10.1221 9.88483 9.14081C9.75622 8.15956 9.09527 7.43706 8.40856 7.52707C7.72185 7.61708 7.26943 8.48551 7.39804 9.46676C7.52666 10.448 8.36385 11.1743 9.05055 11.0843ZM15.2034 15.2904C14.5094 15.7956 14.0642 15.6271 13.3512 15.3571C12.9323 15.1985 12.421 15.0048 11.7124 14.8923C11.1221 14.7985 10.627 14.8639 10.2057 14.9196H10.2057C9.60828 14.9987 9.15923 15.0581 8.79722 14.6156C8.16938 13.8484 8.91658 12.6865 9.63584 11.8641C9.79906 11.6775 9.97096 11.4381 10.1549 11.182L10.1549 11.1819C10.7814 10.3095 11.5472 9.24296 12.5838 9.40766C14.1577 9.65773 14.4413 10.8672 14.6236 11.6442C14.6664 11.827 14.7037 11.9859 14.7508 12.1027C14.7973 12.218 14.8813 12.3743 14.9796 12.5573L14.9796 12.5573C15.4045 13.3481 16.0981 14.6392 15.2034 15.2904Z" fill="#1B141F"/>
</svg>
