<svg width="32" height="32" viewBox="0 0 32 32" fill="none" xmlns="http://www.w3.org/2000/svg">
<g clip-path="url(#clip0_1267_885)">
<path d="M16 24C20 19.8 24 16.0391 24 11.4C24 6.76081 20.4183 3 16 3C11.5817 3 8 6.76081 8 11.4C8 16.0391 12 19.8 16 24Z" stroke="black" stroke-width="1.5" stroke-linecap="round" stroke-linejoin="round"/>
<path d="M16 24C20 19.8 24 16.0391 24 11.4C24 6.76081 20.4183 3 16 3C11.5817 3 8 6.76081 8 11.4C8 16.0391 12 19.8 16 24Z" fill="white" stroke="#2196F3" stroke-width="1.5" stroke-linecap="round" stroke-linejoin="round"/>
<path d="M13.7798 10.0816C13.9048 10.4105 13.9296 10.7904 13.8491 11.1427C13.7685 11.4951 13.5888 11.793 13.347 11.9748C12.8875 12.1889 12.3362 11.6863 12.1161 10.8539C11.9909 10.5251 11.9659 10.145 12.0463 9.7925C12.1268 9.43996 12.3065 9.14188 12.5483 8.95998C13.0078 8.74588 13.5592 9.24922 13.7798 10.0816ZM17.4788 16C17.2783 16.0004 17.0797 15.9482 16.8945 15.8467C16.7092 15.7451 16.541 15.596 16.3993 15.408C16.2934 15.2678 16.1498 15.1891 16 15.1891C15.8502 15.1891 15.7066 15.2678 15.6007 15.408C15.3137 15.7837 14.9262 15.9937 14.5227 15.9921C14.1193 15.9906 13.7327 15.7777 13.4474 15.3998C13.1621 15.022 13.0013 14.5099 13.0001 13.9756C12.999 13.4412 13.1575 12.928 13.4412 12.548C13.7771 12.1027 14.176 11.7495 14.6151 11.5085C15.0541 11.2675 15.5247 11.1435 16 11.1435C16.4753 11.1435 16.9459 11.2675 17.3849 11.5085C17.824 11.7495 18.2229 12.1027 18.5588 12.548C18.7723 12.8309 18.9176 13.1912 18.9765 13.5835C19.0353 13.9757 19.0051 14.3823 18.8895 14.7518C18.7739 15.1213 18.5782 15.437 18.3271 15.6592C18.076 15.8814 17.7808 16 17.4788 16ZM15.8468 8.69705C15.9189 9.70147 15.5275 10.5722 14.9733 10.6413C14.4191 10.7104 13.9114 9.95239 13.8399 8.94796C13.7679 7.94429 14.1593 7.07358 14.7135 7.00447C15.2677 6.9346 15.7748 7.69262 15.8468 8.69705ZM16.1532 8.69705C16.0811 9.70147 16.4725 10.5722 17.0267 10.6413C17.5809 10.7104 18.088 9.95239 18.1601 8.94796C18.2321 7.94429 17.8407 7.07358 17.2865 7.00447C16.7323 6.9346 16.2246 7.69262 16.1532 8.69705ZM18.2202 10.0809C18.0948 10.4099 18.0698 10.7901 18.1504 11.1429C18.231 11.4956 18.4109 11.7937 18.653 11.9755C19.1125 12.1889 19.6638 11.6863 19.8839 10.8539C20.0091 10.5251 20.0341 10.145 19.9537 9.7925C19.8732 9.43996 19.6935 9.14188 19.4517 8.95998C18.9922 8.74588 18.4408 9.24847 18.2202 10.0809Z" fill="#2196F3"/>
</g>
<defs>
<clipPath id="clip0_1267_885">
<rect width="32" height="32" fill="white"/>
</clipPath>
</defs>
</svg>
