<svg width="24" height="23" viewBox="0 0 24 23" fill="none" xmlns="http://www.w3.org/2000/svg">
<path d="M23.707 19.064H0.878906V15.7648L2.77466 13.8691V9.54562C2.77466 4.28882 7.03613 0.0273438 12.2929 0.0273438C17.5497 0.0273438 21.8113 4.28882 21.8113 9.54562V13.8701L23.707 15.7658L23.707 19.064ZM2.86398 17.079H21.722V16.5827L19.8262 14.6869V9.54569C19.8262 5.38516 16.4535 2.0124 12.293 2.0124C8.13245 2.0124 4.75973 5.38518 4.75973 9.54567V14.6899L2.86398 16.5867V17.079ZM12.2929 22.8951C10.1849 22.8929 8.47531 21.1903 8.46182 19.0851V19.0838C8.46092 19.0541 8.46039 19.0191 8.46039 18.9841C8.46039 18.5287 8.54726 18.0936 8.70532 17.6944L8.69706 17.7181L10.5491 18.4337C10.4856 18.5955 10.4487 18.7828 10.4487 18.9788C10.4487 18.9993 10.4491 19.0198 10.4499 19.0401L10.4498 19.0372V19.0689C10.4498 20.0885 11.2763 20.915 12.2959 20.915C13.3156 20.915 14.1421 20.0885 14.1421 19.0689V19.0371C14.1428 19.0197 14.1432 18.9993 14.1432 18.9788C14.1432 18.7828 14.1063 18.5955 14.0392 18.4233L14.0428 18.4337L15.8948 17.7181C16.0412 18.0895 16.126 18.5197 16.126 18.9698C16.126 19.0099 16.1253 19.0498 16.124 19.0896L16.1241 19.0838C16.1106 21.1903 14.401 22.8929 12.2932 22.8951H12.293H12.2929Z" fill="#1B141F"/>
</svg>
