<svg width="32" height="32" viewBox="0 0 32 32" fill="none" xmlns="http://www.w3.org/2000/svg">
<g clip-path="url(#clip0_1260_857)">
<path d="M11.1285 13.3973C11.4185 13.9733 11.476 14.6386 11.2892 15.2558C11.1023 15.873 10.6854 16.3947 10.1246 16.7131C9.05878 17.0881 7.77983 16.2078 7.26931 14.7499C6.97879 14.174 6.92086 13.5084 7.10749 12.8909C7.29413 12.2735 7.71105 11.7514 8.27194 11.4328C9.33773 11.0578 10.6167 11.9394 11.1285 13.3973ZM19.7088 23.7631C19.2437 23.7637 18.7831 23.6725 18.3534 23.4945C17.9236 23.3166 17.5333 23.0555 17.2048 22.7262C16.9591 22.4807 16.6259 22.3428 16.2785 22.3428C15.9311 22.3428 15.5979 22.4807 15.3522 22.7262C14.6866 23.3842 13.7877 23.752 12.8518 23.7493C11.9159 23.7466 11.0191 23.3737 10.3573 22.7119C9.69557 22.0501 9.3226 21.1533 9.31991 20.2174C9.31722 19.2815 9.68503 18.3826 10.343 17.717C11.1222 16.9372 12.0475 16.3185 13.066 15.8964C14.0844 15.4743 15.1761 15.2571 16.2785 15.2571C17.381 15.2571 18.4726 15.4743 19.4911 15.8964C20.5095 16.3185 21.4348 16.9372 22.214 17.717C22.7092 18.2125 23.0464 18.8436 23.1829 19.5307C23.3194 20.2177 23.2491 20.9298 22.981 21.5769C22.7129 22.224 22.2589 22.7771 21.6764 23.1662C21.094 23.5554 20.4093 23.7631 19.7088 23.7631ZM15.9233 10.9723C16.0904 12.7315 15.1825 14.2565 13.8969 14.3776C12.6114 14.4986 11.4338 13.171 11.268 11.4118C11.1009 9.65388 12.0088 8.12888 13.2943 8.00782C14.5798 7.88546 15.7562 9.21309 15.9233 10.9723ZM16.6338 10.9723C16.4667 12.7315 17.3746 14.2565 18.6601 14.3776C19.9456 14.4986 21.1219 13.171 21.289 11.4118C21.4562 9.65388 20.5483 8.12888 19.2627 8.00782C17.9772 7.88546 16.7996 9.21309 16.6338 10.9723ZM21.4285 13.396C21.1377 13.9722 21.0798 14.6382 21.2667 15.256C21.4536 15.8738 21.871 16.396 22.4325 16.7144C23.4983 17.0881 24.7772 16.2078 25.2877 14.7499C25.5782 14.174 25.6362 13.5084 25.4495 12.8909C25.2629 12.2735 24.846 11.7514 24.2851 11.4328C23.2193 11.0578 21.9404 11.9381 21.4285 13.396Z" fill="white"/>
</g>
<defs>
<clipPath id="clip0_1260_857">
<rect width="32" height="32" fill="white"/>
</clipPath>
</defs>
</svg>
