<svg width="32" height="32" viewBox="0 0 32 32" fill="none" xmlns="http://www.w3.org/2000/svg">
<g clip-path="url(#clip0_1289_896)">
<path d="M21.0518 24.2949C14.3957 24.1293 9.15334 17.8285 9.34258 10.2216C9.35112 9.87839 9.37055 9.53841 9.40055 9.20198C9.43497 8.81597 9.45214 8.623 9.54516 8.44917C9.62218 8.30526 9.75578 8.17032 9.89017 8.10058C10.0524 8.01632 10.2391 8.02096 10.6124 8.03025L12.8029 8.08474C13.1169 8.09255 13.2739 8.09646 13.4069 8.1589C13.5245 8.21393 13.6282 8.30134 13.709 8.41325C13.8005 8.53992 13.8499 8.70991 13.9488 9.04972L14.7846 11.9219C14.8996 12.3173 14.9572 12.5151 14.942 12.7009C14.9286 12.8648 14.8756 13.0215 14.7891 13.1536C14.691 13.3034 14.5317 13.4068 14.2131 13.6138L13.1308 14.317C14.0053 16.695 15.6303 18.6455 17.6634 19.7648L18.3321 18.5645C18.529 18.2112 18.6274 18.0346 18.7632 17.9301C18.8829 17.8379 19.0225 17.7853 19.1664 17.7782C19.3295 17.7701 19.4994 17.8458 19.8391 17.9969L22.3067 19.0952C22.5987 19.2251 22.7447 19.2901 22.8508 19.4009C22.9446 19.4987 23.0157 19.6215 23.058 19.7585C23.1058 19.9136 23.1013 20.0929 23.0924 20.4517L23.0301 22.9552C23.0195 23.3819 23.0142 23.5952 22.9325 23.7762C22.8648 23.9261 22.7402 24.0718 22.6105 24.1526C22.454 24.25 22.2845 24.26 21.9455 24.2799C21.6501 24.2972 21.3521 24.3024 21.0518 24.2949Z" stroke="black" stroke-width="1.5" stroke-linecap="round" stroke-linejoin="round"/>
</g>
<defs>
<clipPath id="clip0_1289_896">
<rect width="32" height="32" fill="white"/>
</clipPath>
</defs>
</svg>
