<svg width="32" height="32" viewBox="0 0 32 32" fill="none" xmlns="http://www.w3.org/2000/svg">
<g clip-path="url(#clip0_1267_906)">
<path d="M16 24C20 19.8 24 16.0391 24 11.4C24 6.76081 20.4183 3 16 3C11.5817 3 8 6.76081 8 11.4C8 16.0391 12 19.8 16 24Z" fill="white" stroke="#2196F3" stroke-width="1.5" stroke-linecap="round" stroke-linejoin="round"/>
<path d="M16 24C20 19.8 24 16.0391 24 11.4C24 6.76081 20.4183 3 16 3C11.5817 3 8 6.76081 8 11.4C8 16.0391 12 19.8 16 24Z" fill="white" stroke="#2196F3" stroke-width="1.5" stroke-linecap="round" stroke-linejoin="round"/>
<path fill-rule="evenodd" clip-rule="evenodd" d="M13.0037 15.9352C13.0037 15.6858 13.1953 15.4836 13.4317 15.4836H18.5682C18.8046 15.4836 18.9962 15.6858 18.9962 15.9352C18.9962 16.1847 18.8046 16.3868 18.5682 16.3868H13.4317C13.1953 16.3868 13.0037 16.1847 13.0037 15.9352Z" fill="#2196F3" stroke="#2196F3" stroke-width="0.7"/>
<path fill-rule="evenodd" clip-rule="evenodd" d="M15.092 8.39681C15.5934 7.86773 16.4065 7.86773 16.908 8.39681L18.0066 9.55584C18.1369 9.69329 18.3358 9.72737 18.5006 9.64044L18.8048 9.47997C19.4618 9.13339 20.188 9.79788 19.9558 10.5331L19.1694 13.0219C18.9946 13.5752 18.5039 13.9483 17.9512 13.9483H14.0488C13.4961 13.9483 13.0054 13.5752 12.8306 13.0219L12.0443 10.5331C11.812 9.79788 12.5382 9.13339 13.1952 9.47997L13.4993 9.64044C13.6641 9.72737 13.8632 9.69329 13.9934 9.55584L15.092 8.39681Z" fill="#2196F3" stroke="#2196F3" stroke-width="0.7"/>
</g>
<defs>
<clipPath id="clip0_1267_906">
<rect width="32" height="32" fill="white"/>
</clipPath>
</defs>
</svg>
