<svg width="16" height="17" viewBox="0 0 16 17" fill="none" xmlns="http://www.w3.org/2000/svg">
<path fill-rule="evenodd" clip-rule="evenodd" d="M11.5 5C11.5 6.933 9.933 8.5 8 8.5C6.067 8.5 4.5 6.933 4.5 5C4.5 3.067 6.067 1.5 8 1.5C9.933 1.5 11.5 3.067 11.5 5ZM13 5C13 7.76142 10.7614 10 8 10C5.23858 10 3 7.76142 3 5C3 2.23858 5.23858 0 8 0C10.7614 0 13 2.23858 13 5ZM3.02448 10.2903C3.16276 10.1835 3.33057 10.1198 3.50473 10.106C3.82536 10.0806 4.01033 10.0873 4.13419 10.1375C4.67293 10.356 4.28476 11.2661 3.85697 11.6597C2.87925 12.5595 1.97248 13.9576 1.5891 14.9928H14.4899C14.1058 13.9557 13.1485 12.5541 12.1472 11.6546C11.7147 11.266 11.3269 10.3557 11.8659 10.1375C11.9897 10.0874 12.1746 10.0808 12.495 10.1063C12.6691 10.1202 12.8368 10.1839 12.975 10.2906C14.5963 11.5427 15.7152 13.3928 15.9862 15.502C16.0566 16.0498 15.6021 16.4998 15.0499 16.4998H0.949191C0.396906 16.4998 -0.0575638 16.0498 0.0128305 15.502C0.283899 13.3927 1.40298 11.5424 3.02448 10.2903Z" fill="#1B141F"/>
</svg>
