<svg width="18" height="18" viewBox="0 0 18 18" fill="none" xmlns="http://www.w3.org/2000/svg">
<g clip-path="url(#clip0_46_108)">
<path fill-rule="evenodd" clip-rule="evenodd" d="M1.5 8C1.5 11.5899 4.4101 14.5 8 14.5C11.5898 14.5 14.5 11.5899 14.5 8C14.5 4.41015 11.5898 1.5 8 1.5C4.4101 1.5 1.5 4.41015 1.5 8ZM0 8C0 12.4183 3.5817 16 8 16C9.93907 16 11.717 15.3101 13.1018 14.1624L16.4697 17.5303C16.7626 17.8232 17.2374 17.8232 17.5303 17.5303C17.8232 17.2374 17.8232 16.7626 17.5303 16.4697L14.1624 13.1018C15.3101 11.717 16 9.93907 16 8C16 3.58172 12.4183 0 8 0C3.5817 0 0 3.58172 0 8Z" fill="#1B141F"/>
</g>
<defs>
<clipPath id="clip0_46_108">
<rect width="18" height="18" fill="white" transform="matrix(-1 0 0 1 18 0)"/>
</clipPath>
</defs>
</svg>
