<svg width="18" height="16" viewBox="0 0 18 16" fill="none" xmlns="http://www.w3.org/2000/svg">
<path fill-rule="evenodd" clip-rule="evenodd" d="M8.17986 1.41037C6.22962 -0.407349 3.10417 1.39713 3.70325 3.99495C3.84516 4.61033 3.487 5.23068 2.88311 5.41547C0.333792 6.19557 0.333793 9.80452 2.88311 10.5846C3.487 10.7694 3.84516 11.3898 3.70325 12.0051C3.10417 14.603 6.22962 16.4074 8.17986 14.5897C8.64184 14.1591 9.35816 14.1591 9.82014 14.5897C11.7704 16.4074 14.8958 14.603 14.2968 12.0051C14.1548 11.3898 14.513 10.7694 15.1169 10.5846C17.6662 9.80452 17.6662 6.19557 15.1169 5.41547C14.513 5.23068 14.1548 4.61033 14.2967 3.99495C14.8958 1.39713 11.7704 -0.40735 9.82014 1.41037C9.35815 1.84097 8.64184 1.84097 8.17986 1.41037ZM5.16489 3.65788C4.89828 2.50176 6.28921 1.69871 7.15714 2.50766C8.19522 3.4752 9.80478 3.4752 10.8429 2.50766C11.7108 1.69871 13.1017 2.50176 12.8351 3.65788C12.5162 5.04066 13.321 6.43458 14.678 6.84982C15.8125 7.19699 15.8125 8.8031 14.678 9.15027C13.321 9.5655 12.5162 10.9594 12.8351 12.3422C13.1017 13.4983 11.7108 14.3014 10.8429 13.4924C9.80478 12.5249 8.19522 12.5249 7.15714 13.4924C6.28921 14.3014 4.89828 13.4983 5.16489 12.3422C5.48376 10.9594 4.67898 9.5655 3.32202 9.15027C2.18749 8.8031 2.18749 7.19699 3.32202 6.84982C4.67898 6.43458 5.48376 5.04066 5.16489 3.65788ZM10.299 7.25004C10.7132 7.96748 10.4674 8.88487 9.75 9.29908C9.03256 9.7133 8.11517 9.46748 7.70096 8.75004C7.28675 8.0326 7.53256 7.11522 8.25 6.70101C8.96744 6.28679 9.88482 6.5326 10.299 7.25004ZM11.5981 6.50004C12.4265 7.93492 11.9349 9.76969 10.5 10.5981C9.06512 11.4265 7.23035 10.9349 6.40192 9.50004C5.57349 8.06517 6.06512 6.23039 7.5 5.40197C8.93488 4.57354 10.7696 5.06517 11.5981 6.50004Z" fill="#1B141F"/>
</svg>
