<svg width="32" height="32" viewBox="0 0 32 32" fill="none" xmlns="http://www.w3.org/2000/svg">
<path d="M8 18.7499H24" stroke="black" stroke-width="1.5" stroke-linecap="round" stroke-linejoin="round"/>
<path d="M8 13.2499H24" stroke="black" stroke-width="1.5" stroke-linecap="round" stroke-linejoin="round"/>
<path d="M16 24.25C20.9706 24.25 25 20.5564 25 16C25 11.4437 20.9706 7.75 16 7.75C11.0294 7.75 7 11.4437 7 16C7 20.5564 11.0294 24.25 16 24.25Z" stroke="black" stroke-width="1.5" stroke-linecap="round" stroke-linejoin="round"/>
<path d="M16 24.0833L15.476 24.7249C15.6139 24.9009 15.8029 25 16 25C16.1971 25 16.386 24.9009 16.524 24.7249L16 24.0833ZM16 7.91667L16.524 7.27509C16.386 7.09916 16.1971 7 16 7C15.8029 7 15.6139 7.09916 15.4759 7.27509L16 7.91667ZM17.9076 16.0001C17.9076 18.8976 16.9809 21.523 15.476 23.4418L16.524 24.7249C18.2869 22.4773 19.375 19.3965 19.375 16.0001H17.9076ZM15.4759 8.55825C16.9809 10.477 17.9076 13.1024 17.9076 16.0001H19.375C19.375 12.6035 18.2869 9.52268 16.524 7.27509L15.4759 8.55825ZM14.0924 16.0001C14.0924 13.1024 15.0191 10.477 16.524 8.55825L15.4759 7.27509C13.7131 9.52268 12.625 12.6035 12.625 16.0001H14.0924ZM16.524 23.4418C15.0191 21.523 14.0924 18.8976 14.0924 16.0001H12.625C12.625 19.3965 13.7131 22.4773 15.476 24.7249L16.524 23.4418Z" fill="black"/>
</svg>
